<svg width="415" height="387" viewBox="0 0 415 387" fill="none" xmlns="http://www.w3.org/2000/svg">
<g clip-path="url(#clip0_18_623)">
<path d="M279.739 274.349H130.867C118.354 274.349 108.174 264.168 108.174 251.653V102.766C108.174 90.251 118.354 80.0696 130.867 80.0696H279.739C292.253 80.0696 302.433 90.251 302.433 102.766V251.653C302.433 264.168 292.253 274.349 279.739 274.349ZM130.867 83.701C120.339 83.701 111.805 92.2366 111.805 102.766V251.653C111.805 262.182 120.339 270.718 130.867 270.718H235.148C270.303 270.718 298.802 242.216 298.802 207.058V102.766C298.802 92.2366 290.267 83.701 279.739 83.701L130.867 83.701Z" fill="#F2F2F2"/>
<path d="M146.917 99.1836C139.871 99.1836 134.139 104.916 134.139 111.963V131.965C134.139 139.012 139.871 144.744 146.917 144.744H166.917C173.963 144.744 179.695 139.012 179.695 131.965V111.963C179.695 104.916 173.963 99.1836 166.917 99.1836H146.917Z" fill="#F2F2F2"/>
<path d="M146.917 155.493C139.871 155.493 134.139 161.225 134.139 168.272V188.274C134.139 195.321 139.871 201.053 146.917 201.053H166.917C173.963 201.053 179.695 195.321 179.695 188.274V168.272C179.695 161.225 173.963 155.493 166.917 155.493H146.917Z" fill="#F2F2F2"/>
<path d="M146.917 211.802C139.871 211.802 134.139 217.534 134.139 224.581V244.583C134.139 251.63 139.871 257.363 146.917 257.363H166.917C173.963 257.363 179.695 251.63 179.695 244.583V224.581C179.695 217.534 173.963 211.802 166.917 211.802H146.917Z" fill="#F2F2F2"/>
<path d="M160.18 50.3824C151.302 50.3824 144.08 57.6056 144.08 66.4847V91.6881C144.08 100.567 151.302 107.79 160.18 107.79H185.381C194.259 107.79 201.481 100.567 201.481 91.6881V66.4847C201.481 57.6056 194.259 50.3824 185.381 50.3824H160.18Z" fill="#764AF1"/>
<path d="M243.148 120.816C234.269 120.816 227.047 128.039 227.047 136.918V162.121C227.047 171 234.269 178.224 243.148 178.224H268.348C277.227 178.224 284.449 171 284.449 162.121V136.918C284.449 128.039 277.227 120.816 268.348 120.816H243.148Z" fill="#764AF1"/>
<path d="M207.077 374.499L201.958 374.456L199.692 354.246L207.248 354.31L207.077 374.499Z" fill="#A0616A"/>
<path d="M190.679 382.641C190.668 383.901 191.683 384.938 192.948 384.95L203.127 385.035L204.909 381.422L205.564 385.053L209.404 385.088L208.434 372.138L207.098 372.049L201.648 371.673L199.889 371.556L199.859 375.22L191.682 380.766C191.06 381.189 190.685 381.889 190.679 382.641Z" fill="#2F2E41"/>
<path d="M233.125 374.499L228.006 374.456L225.74 354.246L233.296 354.31L233.125 374.499Z" fill="#A0616A"/>
<path d="M216.727 382.641C216.716 383.901 217.731 384.938 218.996 384.95L229.175 385.035L230.957 381.422L231.612 385.053L235.452 385.088L234.482 372.138L233.146 372.049L227.696 371.673L225.937 371.556L225.907 375.22L217.73 380.766C217.108 381.189 216.733 381.889 216.727 382.641Z" fill="#2F2E41"/>
<path d="M186.988 211.105L207.74 211.761L227.4 216.13C227.4 216.13 225.434 218.533 231.987 225.087C231.987 225.087 240.725 240.38 234.608 255.236L231.987 314.659C231.987 314.659 239.63 356.548 233.79 369.88L226.073 370.362L213.013 315.142L206.648 255.672L203.589 314.222C203.589 314.222 215.289 354.409 207.901 370.362L199.542 369.88L185.24 314.222C185.24 314.222 179.124 249.992 179.997 237.758C180.871 225.524 186.988 211.105 186.988 211.105Z" fill="#2F2E41"/>
<path d="M256.678 117.207C253.841 117.942 252.137 120.838 252.872 123.675C253.208 124.975 254.001 126.032 255.032 126.731L255.031 126.738L254.629 136.487L262.089 139.94L262.684 124.938L262.632 124.939C263.279 123.787 263.502 122.395 263.145 121.014C262.41 118.177 259.515 116.473 256.678 117.207Z" fill="#A0616A"/>
<path d="M214.987 152.001C213.42 150.447 212.511 148.341 212.477 146.051C212.431 142.978 213.97 140.19 216.595 138.591C219.617 136.751 223.396 136.937 226.222 139.065L249.647 156.704L253.821 131.294L262.782 134.179L260.644 167.266C260.494 169.58 259.186 171.619 257.145 172.72C255.103 173.821 252.682 173.793 250.666 172.646L216.814 153.385C216.134 152.998 215.522 152.531 214.987 152.001Z" fill="#3F3D56"/>
<path d="M179.269 102.995C180.766 105.514 179.938 108.77 177.419 110.268C176.265 110.954 174.957 111.146 173.734 110.917L173.729 110.922L167.152 118.129L159.424 115.328L169.562 104.255L169.598 104.293C169.95 103.019 170.771 101.873 171.997 101.145C174.516 99.647 177.771 100.475 179.269 102.995Z" fill="#A0616A"/>
<path d="M182.11 156.755L144.51 146.598C142.272 145.993 140.533 144.307 139.858 142.088C139.183 139.869 139.69 137.5 141.213 135.751L162.987 110.749L171.382 115.01L156.458 135.994L185.509 139.961C189.015 140.44 191.83 142.969 192.68 146.404C193.419 149.387 192.549 152.451 190.353 154.601C188.717 156.204 186.589 157.059 184.382 157.059C183.629 157.059 182.865 156.959 182.11 156.755Z" fill="#3F3D56"/>
<path d="M235.715 219.847L183.136 222.259C181.692 220.066 182.083 216.769 184.106 212.639C191.741 197.047 185.942 167.551 182.041 152.192C180.947 147.883 183.885 143.598 188.309 143.156L193.266 142.66L197.849 128.67H213.898L220.556 136.278L231.856 143.143C229.799 164.33 221.035 194.249 233.52 209.253C236.251 212.535 237.025 216.084 235.715 219.847Z" fill="#3F3D56"/>
<path d="M203.832 128.993C212.465 128.993 219.464 121.994 219.464 113.359C219.464 104.725 212.465 97.725 203.832 97.725C195.198 97.725 188.199 104.725 188.199 113.359C188.199 121.994 195.198 128.993 203.832 128.993Z" fill="#A0616A"/>
<path d="M221.521 103.352C223.696 95.4211 199.991 88.6206 195.385 95.007C194.744 94.0991 192.377 93.5476 191.291 93.8261C190.205 94.1046 189.291 94.8009 188.4 95.475C187.175 96.4164 185.905 97.3912 185.153 98.7448C184.395 100.093 184.278 101.931 185.298 103.101C186.105 104.031 187.525 108.975 188.739 109.22C189.585 109.392 190.298 109.532 190.911 109.632C191.457 108.835 192.849 107.835 192.749 106.871C193.573 107.417 193.272 108.377 193.106 109.359C192.552 112.628 180.084 137.93 187.225 130.474C187.932 130.892 188.807 131.282 189.815 131.638C191.525 129.059 192.929 126.018 193.853 122.837L193.86 122.896C194.178 125.66 196.198 127.928 198.87 128.702C209.59 131.808 218.261 127.251 221.244 119.032C220.152 116.815 219.676 117.056 219.774 116.99C221.137 116.071 223.01 116.672 223.596 118.208C223.769 118.661 223.926 119.048 224.062 119.339C225.616 113.779 227.464 114.582 221.521 103.352Z" fill="#2F2E41"/>
<path d="M214.126 97.5979L213.031 91.9993C212.939 91.5287 212.852 91.0181 213.064 90.588C213.336 90.0355 214.037 89.8065 214.647 89.8945C215.257 89.9826 215.713 90.5396 216.32 90.6469C218.429 91.0199 221.217 88.9362 221.973 94.2074C222.288 96.4052 225.794 96.6374 226.966 98.5236C228.137 100.41 228.28 103.132 226.682 104.673C225.406 105.904 223.356 106.046 221.698 105.417C220.04 104.789 218.71 103.519 217.547 102.18C216.385 100.841 215.333 99.3916 213.992 98.231" fill="#2F2E41"/>
<path d="M222.356 106.113C218.079 105.516 215.163 103.96 213.69 101.489C211.763 98.2554 213.054 94.6945 213.11 94.5444L214.014 94.8806C214.002 94.9133 212.831 98.173 214.524 101.004C215.841 103.206 218.521 104.603 222.489 105.158L222.356 106.113Z" fill="#6C63FF"/>
<path d="M242.43 45.6196C229.854 45.6196 219.622 35.3864 219.622 22.8098C219.622 10.2332 229.854 0 242.43 0C255.005 0 265.237 10.2332 265.237 22.8098C265.237 35.3864 255.005 45.6196 242.43 45.6196ZM242.43 9.12392C234.883 9.12392 228.745 15.263 228.745 22.8098C228.745 30.3566 234.883 36.4957 242.43 36.4957C249.976 36.4957 256.114 30.3566 256.114 22.8098C256.114 15.263 249.976 9.12392 242.43 9.12392Z" fill="#764AF1"/>
<path d="M277.52 61.1209C276.402 61.1209 275.282 60.7132 274.402 59.8868L252.996 39.8236C251.156 38.1017 251.062 35.2148 252.786 33.3771C254.506 31.5327 257.392 31.4414 259.232 33.1677L280.639 53.231C282.478 54.9529 282.572 57.8397 280.848 59.6774C279.95 60.6375 278.737 61.1209 277.52 61.1209Z" fill="#764AF1"/>
<path d="M374.267 373.987C375.818 374.084 376.675 372.157 375.502 371.034L375.385 370.569C375.401 370.532 375.416 370.495 375.432 370.458C377 366.718 382.316 366.744 383.871 370.489C385.251 373.814 387.008 377.144 387.441 380.66C387.635 382.211 387.548 383.792 387.203 385.315C390.437 378.249 392.139 370.534 392.139 362.776C392.139 360.826 392.033 358.877 391.814 356.932C391.635 355.342 391.388 353.761 391.068 352.195C389.337 343.728 385.589 335.664 380.182 328.928C377.583 327.507 375.416 325.286 374.107 322.624C373.637 321.664 373.268 320.631 373.094 319.579C373.389 319.617 374.209 315.112 373.986 314.836C374.398 314.21 375.136 313.9 375.586 313.289C377.825 310.253 380.909 310.783 382.519 314.909C385.959 316.645 385.993 319.525 383.882 322.294C382.539 324.056 382.355 326.44 381.176 328.327C381.298 328.482 381.424 328.632 381.545 328.787C383.768 331.639 385.69 334.703 387.311 337.923C386.853 334.345 387.529 330.034 388.682 327.255C389.995 324.089 392.454 321.422 394.621 318.685C397.223 315.397 402.558 316.832 403.017 321C403.021 321.04 403.025 321.08 403.03 321.121C402.708 321.302 402.393 321.495 402.085 321.699C400.328 322.86 400.935 325.583 403.016 325.904L403.064 325.912C402.947 327.071 402.748 328.22 402.457 329.35C405.236 340.098 399.237 344.013 390.67 344.188C390.481 344.285 390.297 344.382 390.108 344.475C390.976 346.919 391.669 349.426 392.183 351.967C392.644 354.212 392.964 356.481 393.143 358.76C393.366 361.636 393.347 364.526 393.104 367.397L393.119 367.295C393.735 364.133 395.451 361.18 397.943 359.134C401.656 356.084 406.901 354.96 410.907 352.509C412.835 351.328 415.305 352.854 414.969 355.089L414.953 355.196C414.356 355.439 413.774 355.72 413.212 356.035C412.89 356.217 412.575 356.409 412.267 356.613C410.511 357.775 411.118 360.498 413.199 360.819L413.246 360.826C413.28 360.831 413.309 360.836 413.343 360.841C412.32 363.27 410.894 365.525 409.11 367.47C407.372 376.852 399.909 377.743 391.926 375.01H391.921C391.048 378.812 389.773 382.527 388.134 386.066H374.606C374.558 385.916 374.514 385.761 374.471 385.611C375.722 385.688 376.982 385.615 378.214 385.388C377.21 384.156 376.206 382.914 375.203 381.683C375.178 381.658 375.159 381.634 375.14 381.61C374.631 380.98 374.117 380.354 373.607 379.724L373.607 379.723C373.575 377.788 373.808 375.859 374.267 373.987Z" fill="#F2F2F2"/>
<path d="M0 386.107C0 386.602 0.397899 387 0.89339 387H414.001C414.497 387 414.895 386.602 414.895 386.107C414.895 385.611 414.497 385.213 414.001 385.213H0.89339C0.397899 385.213 0 385.611 0 386.107Z" fill="#CCCCCC"/>
</g>
<defs>
<clipPath id="clip0_18_623">
<rect width="415" height="387" fill="white"/>
</clipPath>
</defs>
</svg>
