<svg width="723" height="584" viewBox="0 0 723 584" fill="none" xmlns="http://www.w3.org/2000/svg">
<path d="M28.6486 0.00367683H245.675C256.148 0.00316369 266.309 3.56755 274.489 10.1109C282.669 16.6542 288.379 25.7871 290.683 36.0082L400.34 522.627C401.536 527.935 401.557 533.44 400.402 538.757C399.247 544.074 396.943 549.073 393.652 553.405C390.361 557.737 386.162 561.296 381.351 563.833C376.54 566.37 371.232 567.823 365.8 568.091L142.695 579.088C130.748 579.677 118.996 575.897 109.63 568.453C100.265 561.01 93.9259 550.412 91.797 538.636L29.5885 194.593L24.9605 195.915L13.0546 130.706L17.8178 129.515L0.454132 33.4789C-0.289948 29.3654 -0.117798 25.1383 0.958405 21.099C2.03461 17.0597 3.98834 13.3076 6.68024 10.1104C9.37213 6.91311 12.7359 4.34938 16.5318 2.60194C20.3277 0.854508 24.4622 -0.0335871 28.6405 0.000971209L28.6486 0.00367683Z" fill="#3F3D56"/>
<path d="M217.107 10.4937H242.438C249.713 10.4938 256.769 12.9831 262.436 17.5483C268.102 22.1136 272.037 28.4802 273.588 35.5913L378.847 518.24C379.454 521.019 379.453 523.896 378.846 526.675C378.239 529.453 377.039 532.068 375.329 534.341C373.619 536.613 371.439 538.489 368.938 539.841C366.437 541.193 363.673 541.989 360.836 542.175L138.456 556.757C132.182 557.168 125.976 555.254 121.023 551.38C116.07 547.506 112.716 541.943 111.601 535.752L21.7838 36.888C21.2025 33.6592 21.3366 30.3421 22.1767 27.1708C23.0167 23.9995 24.5421 21.0513 26.6454 18.5342C28.7487 16.0171 31.3785 13.9925 34.3493 12.6032C37.32 11.2139 40.5593 10.4938 43.8386 10.4937H67.8697C70.1957 10.4937 72.4569 11.2607 74.3032 12.6762C76.1494 14.0917 77.4778 16.0766 78.0826 18.3236C78.6166 20.308 79.7898 22.0609 81.4205 23.3107C83.0511 24.5605 85.0481 25.2374 87.1023 25.2366H201.19C205.211 25.2365 209.085 23.7181 212.036 20.9849C214.986 18.2517 216.798 14.505 217.107 10.4937Z" fill="white"/>
<path d="M94.6113 347.808C94.1789 347.823 93.7556 347.682 93.4185 347.41C93.0814 347.139 92.853 346.756 92.7749 346.33L43.5971 74.7915C43.5503 74.5334 43.5596 74.2682 43.6245 74.0141C43.6894 73.7599 43.8083 73.5228 43.9732 73.3188C44.1366 73.1165 44.3425 72.9526 44.5764 72.8389C44.8102 72.7252 45.0662 72.6645 45.3262 72.661L269.067 70.017H269.087C269.494 70.0205 269.887 70.1618 270.202 70.4179C270.517 70.6739 270.737 71.0296 270.824 71.4265L328.798 334.151C328.855 334.408 328.856 334.673 328.8 334.93C328.745 335.187 328.635 335.428 328.477 335.639C328.321 335.847 328.122 336.019 327.892 336.141C327.662 336.263 327.409 336.334 327.149 336.347L94.6113 347.808Z" fill="#E6E6E6"/>
<path d="M288.336 365.463C288.539 365.463 288.737 365.532 288.896 365.658C289.056 365.785 289.167 365.962 289.214 366.16L291.309 375.144C291.339 375.271 291.34 375.403 291.314 375.531C291.288 375.658 291.235 375.779 291.157 375.884C291.08 375.989 290.981 376.076 290.867 376.139C290.753 376.202 290.627 376.24 290.497 376.249L172.132 384.666C171.913 384.68 171.695 384.614 171.521 384.48C171.346 384.346 171.226 384.153 171.182 383.938L169.167 373.543C169.143 373.417 169.146 373.287 169.176 373.162C169.206 373.037 169.262 372.92 169.34 372.819C169.419 372.717 169.519 372.634 169.632 372.574C169.746 372.514 169.871 372.479 169.999 372.471L288.281 365.464L288.336 365.463Z" fill="#0A1321"/>
<path d="M144.529 418.036C144.316 418.054 144.103 417.994 143.93 417.869C143.756 417.743 143.632 417.56 143.581 417.352L141.016 406.936C140.985 406.809 140.981 406.676 141.007 406.547C141.032 406.418 141.085 406.296 141.162 406.189C141.24 406.083 141.339 405.995 141.454 405.931C141.569 405.867 141.697 405.829 141.828 405.82L292.987 395.243C293.192 395.227 293.397 395.282 293.566 395.4C293.735 395.517 293.859 395.689 293.915 395.887L296.581 404.888C296.619 405.017 296.628 405.152 296.607 405.285C296.586 405.417 296.535 405.543 296.459 405.654C296.384 405.765 296.284 405.857 296.168 405.924C296.052 405.992 295.922 406.032 295.789 406.043L144.529 418.036Z" fill="#0A1321"/>
<path d="M152.647 451.424C152.433 451.441 152.221 451.382 152.047 451.256C151.874 451.131 151.75 450.948 151.699 450.74L149.134 440.324C149.102 440.196 149.099 440.063 149.124 439.934C149.15 439.805 149.203 439.683 149.28 439.577C149.357 439.471 149.457 439.383 149.572 439.319C149.687 439.255 149.814 439.217 149.946 439.208L301.105 428.631C301.31 428.615 301.515 428.67 301.684 428.787C301.853 428.905 301.976 429.077 302.033 429.275L304.698 438.276C304.736 438.404 304.745 438.54 304.724 438.672C304.703 438.805 304.653 438.931 304.577 439.042C304.501 439.152 304.402 439.245 304.286 439.312C304.17 439.379 304.04 439.42 303.906 439.431L152.647 451.424Z" fill="#0A1321"/>
<path d="M414.728 568.965C414.728 576.517 483.823 577.321 568.864 582.639C653.829 587.951 723 576.517 723 568.965C723 561.413 653.506 546.219 568.864 555.291C483.823 564.407 414.728 561.413 414.728 568.965Z" fill="#E6E6E6"/>
<path d="M222.265 508.501C222.05 508.523 221.834 508.466 221.657 508.341C221.481 508.216 221.356 508.031 221.306 507.82L215.882 486.118C215.85 485.991 215.846 485.858 215.871 485.73C215.895 485.601 215.947 485.48 216.023 485.373C216.099 485.267 216.197 485.178 216.311 485.113C216.425 485.049 216.551 485.01 216.681 484.999L309.508 477.188C309.724 477.173 309.939 477.235 310.115 477.364C310.29 477.493 310.413 477.679 310.464 477.891L315.09 498.72C315.118 498.845 315.119 498.975 315.093 499.1C315.067 499.225 315.014 499.344 314.939 499.447C314.863 499.551 314.767 499.637 314.656 499.7C314.544 499.764 314.421 499.803 314.294 499.815L222.265 508.501Z" fill="#764AF1"/>
<path d="M597.078 420.062C595.909 419.261 594.93 418.213 594.21 416.992C593.49 415.771 593.046 414.407 592.91 412.996C592.774 411.585 592.949 410.161 593.422 408.825C593.896 407.489 594.657 406.273 595.651 405.263L591.892 321.327L611.028 323.475L609.915 405.577C611.502 407.36 612.38 409.663 612.383 412.049C612.385 414.436 611.512 416.741 609.929 418.527C608.346 420.312 606.163 421.454 603.794 421.737C601.425 422.019 599.035 421.422 597.077 420.059L597.078 420.062Z" fill="#A0616A"/>
<path d="M562.169 562.148L551.277 564.064L540.513 522.949L554.783 520.122L562.169 562.148Z" fill="#A0616A"/>
<path d="M532.048 577.875L566.277 571.855L563.952 558.625L542.948 562.319C539.441 562.936 536.322 564.922 534.278 567.839C532.234 570.757 531.432 574.367 532.049 577.876L532.048 577.875Z" fill="#2F2E41"/>
<path d="M592.062 567.602H581.004L575.743 524.931H592.063L592.062 567.602Z" fill="#A0616A"/>
<path d="M559.681 577.876L594.435 577.878L594.436 564.445L573.11 564.444C569.548 564.443 566.133 565.859 563.615 568.378C561.096 570.897 559.682 574.314 559.681 577.876Z" fill="#2F2E41"/>
<path d="M545.927 552.307C546.1 552.307 546.272 552.297 546.443 552.277L559.459 551.205C560.051 551.136 560.623 550.946 561.141 550.648C561.658 550.351 562.109 549.951 562.467 549.473C562.825 548.996 563.082 548.45 563.223 547.87C563.363 547.29 563.385 546.688 563.286 546.099L550.365 482.318L558.483 439.479C558.549 439.131 558.739 438.819 559.017 438.6C559.295 438.381 559.644 438.27 559.997 438.287C560.351 438.305 560.686 438.45 560.942 438.696C561.197 438.941 561.355 439.271 561.386 439.624L573.347 548.474C573.459 549.621 574.011 550.679 574.888 551.426C575.765 552.173 576.897 552.55 578.046 552.478L590.309 552.021C591.383 551.945 592.392 551.478 593.146 550.708C593.9 549.938 594.346 548.919 594.4 547.842L593.42 416.306L529.849 408.356L525.408 476.973L525.426 477.046L541.653 548.942C541.886 549.901 542.435 550.753 543.209 551.363C543.984 551.973 544.941 552.306 545.927 552.307Z" fill="#2F2E41"/>
<path d="M572.456 266.938C560.221 266.938 550.303 257.015 550.303 244.775C550.303 232.535 560.221 222.612 572.456 222.612C584.691 222.612 594.609 232.535 594.609 244.775C594.609 257.015 584.691 266.938 572.456 266.938Z" fill="#A0616A"/>
<path d="M551.582 426.316C555.047 426.336 558.445 425.364 561.375 423.513C572.108 416.803 584.295 419.469 590.605 421.657C591.231 421.876 591.899 421.951 592.558 421.876C593.218 421.801 593.851 421.577 594.412 421.223C594.967 420.874 595.435 420.405 595.782 419.85C596.13 419.295 596.347 418.669 596.418 418.017L607.892 315.486C609.815 298.306 599.471 282.155 583.297 277.081C582.689 276.89 582.072 276.71 581.444 276.539C576.411 275.174 571.139 274.929 566.001 275.821C560.863 276.714 555.983 278.721 551.704 281.704C547.345 284.719 543.7 288.653 541.025 293.229C538.35 297.805 536.71 302.912 536.22 308.191L526.559 411.41C526.493 412.079 526.584 412.753 526.823 413.38C527.062 414.008 527.443 414.571 527.936 415.026C531.324 418.159 541.154 426.315 551.582 426.316Z" fill="#764AF1"/>
<path d="M586.526 337.473L612.412 334.625C613.149 334.544 613.859 334.305 614.495 333.925C615.131 333.544 615.678 333.031 616.098 332.42C616.518 331.809 616.801 331.115 616.928 330.384C617.056 329.654 617.024 328.905 616.836 328.187L610.246 303.06C610.052 301.177 609.487 299.351 608.583 297.687C607.68 296.024 606.455 294.556 604.981 293.368C603.507 292.181 601.812 291.298 599.995 290.77C598.177 290.242 596.273 290.079 594.393 290.292C592.512 290.504 590.692 291.087 589.038 292.007C587.385 292.928 585.929 294.167 584.757 295.653C583.585 297.139 582.718 298.843 582.208 300.666C581.698 302.49 581.554 304.396 581.784 306.275L580.805 332.151C580.777 332.892 580.909 333.63 581.192 334.315C581.475 335.001 581.903 335.617 582.445 336.122C582.988 336.628 583.633 337.01 584.336 337.243C585.04 337.477 585.785 337.556 586.522 337.475L586.526 337.473Z" fill="#764AF1"/>
<path d="M526.665 416.468C525.601 415.532 524.756 414.374 524.189 413.075C523.621 411.776 523.345 410.369 523.38 408.952C523.415 407.536 523.76 406.144 524.391 404.875C525.021 403.606 525.923 402.491 527.031 401.608L533.41 317.83L552.161 322.053L541.157 403.64C542.518 405.601 543.112 407.993 542.827 410.362C542.543 412.732 541.398 414.915 539.612 416.497C537.825 418.078 535.52 418.949 533.135 418.944C530.749 418.939 528.448 418.058 526.668 416.468H526.665Z" fill="#A0616A"/>
<path d="M559.349 332.207C559.892 331.702 560.319 331.086 560.602 330.4C560.885 329.715 561.017 328.977 560.989 328.236L560.01 302.361C560.221 300.491 560.062 298.598 559.542 296.79C559.022 294.982 558.151 293.294 556.978 291.822C555.806 290.351 554.356 289.125 552.71 288.215C551.064 287.304 549.255 286.727 547.386 286.516C545.517 286.304 543.625 286.464 541.818 286.984C540.01 287.505 538.323 288.376 536.852 289.549C535.382 290.722 534.156 292.173 533.246 293.819C532.336 295.466 531.759 297.276 531.548 299.146L524.958 324.273C524.77 324.99 524.739 325.739 524.866 326.47C524.994 327.2 525.277 327.894 525.697 328.505C526.117 329.116 526.663 329.629 527.299 330.01C527.935 330.391 528.646 330.629 529.382 330.71L555.269 333.558C556.006 333.64 556.751 333.561 557.455 333.327C558.158 333.093 558.803 332.711 559.346 332.205L559.349 332.207Z" fill="#764AF1"/>
<path d="M573.773 267.773C574.168 267.773 574.562 267.727 574.946 267.637L575.059 267.61C594.536 264.632 598.841 253.341 599.785 248.628C600.763 243.748 599.65 239.038 597.133 237.208C598.505 232.876 598.285 229.031 596.478 225.782C593.321 220.115 586.483 218.202 585.564 217.964C580.1 213.931 573.562 216.623 572.373 217.169C561.803 213.257 557.761 216.513 557.032 217.24C552.308 218.089 549.428 219.915 548.472 222.669C546.676 227.84 552.354 234.273 552.597 234.545L552.723 234.686L561.184 235.089C561.987 235.127 562.772 235.334 563.49 235.696C564.208 236.058 564.842 236.566 565.35 237.189C565.859 237.811 566.231 238.534 566.443 239.31C566.654 240.085 566.701 240.897 566.578 241.692C566.35 242.717 566.06 243.728 565.713 244.719C564.269 249.236 563.187 253.096 564.582 254.563C564.898 254.847 565.288 255.036 565.706 255.109C566.125 255.181 566.556 255.134 566.949 254.974C568.272 254.62 569.17 254.694 569.617 255.195C570.312 255.97 570.1 257.933 569.02 260.722C568.681 261.604 568.59 262.561 568.756 263.491C568.923 264.422 569.34 265.288 569.964 265.998C570.433 266.552 571.017 266.997 571.675 267.304C572.333 267.61 573.049 267.77 573.775 267.773H573.773Z" fill="#2F2E41"/>
</svg>
