<svg width="793" height="552" viewBox="0 0 793 552" fill="none" xmlns="http://www.w3.org/2000/svg">
<g clip-path="url(#clip0_26_1224)">
<path d="M158 551.866C245.261 551.866 316 546.493 316 539.866C316 533.238 245.261 527.866 158 527.866C70.739 527.866 0 533.238 0 539.866C0 546.493 70.739 551.866 158 551.866Z" fill="#AE4BF2"/>
<path d="M120.772 122.554C148.269 110.859 182.517 118.269 215.963 123.411C216.274 117.183 220.047 109.604 216.095 105.259C211.294 99.9798 211.736 94.4333 214.625 88.8548C222.013 74.5898 211.428 59.4111 200.741 46.7901C198.332 43.9518 195.288 41.7217 191.855 40.281C188.422 38.8403 184.698 38.2295 180.985 38.4983L161.188 39.9124C156.37 40.2565 151.773 42.0637 148.01 45.0921C144.248 48.1206 141.5 52.2258 140.135 56.8586C135.408 63.2877 132.878 69.6991 134.471 76.0771C127.39 80.9159 126.2 86.7569 129.382 93.3415C132.08 97.4874 132.051 101.523 129.259 105.447C125.593 110.45 122.784 116.028 120.949 121.953L120.772 122.554Z" fill="#2F2E41"/>
<path d="M774.209 477.097H213.791C208.807 477.097 204.028 475.118 200.504 471.594C196.98 468.07 195 463.29 195 458.306C398.151 434.696 597.485 434.696 793 458.306C793 463.29 791.02 468.07 787.496 471.594C783.972 475.118 779.193 477.097 774.209 477.097Z" fill="#6B7280"/>
<path d="M793 459.412L195 458.306L264.306 341.691L264.638 341.138V84.1306C264.637 81.0111 265.252 77.9221 266.445 75.0399C267.639 72.1578 269.389 69.5391 271.595 67.3333C273.8 65.1274 276.419 63.3777 279.301 62.1841C282.183 60.9904 285.272 60.3761 288.392 60.3764H696.292C699.411 60.3761 702.501 60.9904 705.383 62.1841C708.265 63.3777 710.883 65.1274 713.089 67.3333C715.295 69.5391 717.045 72.1578 718.239 75.0399C719.432 77.9221 720.046 81.0111 720.046 84.1306V342.907L793 459.412Z" fill="#8E95A2"/>
<path d="M287.85 76.9568C285.799 76.9592 283.832 77.7751 282.382 79.2257C280.931 80.6762 280.115 82.643 280.113 84.6944V319.031C280.115 321.082 280.931 323.049 282.382 324.499C283.832 325.95 285.799 326.766 287.85 326.768H700.15C702.201 326.766 704.168 325.95 705.618 324.499C707.069 323.049 707.885 321.082 707.887 319.031V84.6944C707.885 82.643 707.069 80.6763 705.618 79.2258C704.168 77.7752 702.201 76.9592 700.15 76.9568H287.85Z" fill="white"/>
<path d="M289.578 357.718C288.944 357.719 288.324 357.902 287.79 358.244C287.256 358.586 286.831 359.073 286.565 359.649L265.21 406.074C264.977 406.579 264.876 407.134 264.914 407.689C264.953 408.244 265.13 408.78 265.43 409.248C265.73 409.717 266.143 410.102 266.631 410.369C267.119 410.636 267.666 410.776 268.222 410.776H717.314C717.879 410.776 718.435 410.631 718.929 410.356C719.423 410.081 719.838 409.684 720.135 409.203C720.432 408.722 720.601 408.173 720.627 407.608C720.652 407.044 720.532 406.482 720.279 405.976L697.067 359.551C696.793 358.999 696.37 358.535 695.846 358.211C695.322 357.887 694.718 357.717 694.102 357.718H289.578Z" fill="#2F2E41"/>
<path d="M492.342 73.0881C495.089 73.0881 497.316 70.8611 497.316 68.1139C497.316 65.3668 495.089 63.1398 492.342 63.1398C489.595 63.1398 487.368 65.3668 487.368 68.1139C487.368 70.8611 489.595 73.0881 492.342 73.0881Z" fill="white"/>
<path d="M448.2 419.619C447.471 419.619 446.763 419.86 446.184 420.304C445.605 420.747 445.189 421.368 444.998 422.072L439.641 441.969C439.509 442.46 439.491 442.975 439.59 443.475C439.689 443.974 439.901 444.444 440.211 444.848C440.521 445.252 440.919 445.579 441.375 445.805C441.832 446.03 442.334 446.147 442.843 446.147H544.717C545.246 446.147 545.767 446.021 546.237 445.779C546.706 445.536 547.112 445.185 547.418 444.754C547.725 444.324 547.924 443.826 547.999 443.303C548.074 442.779 548.023 442.246 547.85 441.746L540.963 421.85C540.737 421.198 540.314 420.634 539.752 420.234C539.191 419.834 538.519 419.619 537.829 419.619H448.2Z" fill="#2F2E41"/>
<path d="M720.046 337.269V341.69H264.306L264.649 341.138V337.269H720.046Z" fill="#2F2E41"/>
<path d="M707.335 154.885C750.068 154.885 784.71 120.243 784.71 77.5095C784.71 34.7763 750.068 0.134277 707.335 0.134277C664.601 0.134277 629.959 34.7763 629.959 77.5095C629.959 120.243 664.601 154.885 707.335 154.885Z" fill="#764AF1"/>
<path d="M739.39 111.223H675.279C674.107 111.222 672.983 110.756 672.154 109.927C671.325 109.098 670.859 107.974 670.858 106.802V68.1139C670.859 66.9417 671.325 65.8178 672.154 64.9889C672.983 64.16 674.107 63.6938 675.279 63.6925H739.39C740.562 63.6938 741.686 64.16 742.515 64.9889C743.344 65.8178 743.81 66.9417 743.811 68.1139V106.802C743.81 107.974 743.344 109.098 742.515 109.927C741.686 110.756 740.562 111.222 739.39 111.223ZM675.279 68.114V106.802H739.393L739.39 68.1139L675.279 68.114Z" fill="white"/>
<path d="M727.231 68.114H687.438V50.4282C687.438 37.6183 695.806 28.321 707.334 28.321C718.863 28.321 727.231 37.6183 727.231 50.4282L727.231 68.114ZM691.859 63.6925H722.81V50.4282C722.81 40.0152 716.446 32.7424 707.335 32.7424C698.223 32.7424 691.859 40.0153 691.859 50.4282L691.859 63.6925Z" fill="white"/>
<path d="M707.335 90.7738C709.776 90.7738 711.756 88.7943 711.756 86.3524C711.756 83.9105 709.776 81.931 707.335 81.931C704.893 81.931 702.913 83.9105 702.913 86.3524C702.913 88.7943 704.893 90.7738 707.335 90.7738Z" fill="white"/>
<path d="M653.32 247.284H334.68C333.116 247.282 331.616 246.66 330.51 245.553C329.403 244.447 328.781 242.947 328.779 241.383V162.342C328.781 160.778 329.403 159.278 330.51 158.172C331.616 157.065 333.116 156.443 334.68 156.441H653.32C654.884 156.443 656.384 157.065 657.49 158.172C658.596 159.278 659.219 160.778 659.221 162.342V241.383C659.219 242.947 658.596 244.447 657.49 245.553C656.384 246.66 654.884 247.282 653.32 247.284ZM334.68 158.802C333.741 158.803 332.841 159.176 332.178 159.84C331.514 160.503 331.141 161.403 331.14 162.342V241.383C331.141 242.322 331.514 243.222 332.178 243.885C332.841 244.549 333.741 244.922 334.68 244.923H653.32C654.259 244.922 655.158 244.549 655.822 243.885C656.486 243.222 656.859 242.322 656.86 241.383V162.342C656.859 161.403 656.486 160.503 655.822 159.84C655.158 159.176 654.259 158.803 653.32 158.802L334.68 158.802Z" fill="#0A1321"/>
<path d="M384.19 222.866C397.465 222.866 408.227 212.105 408.227 198.83C408.227 185.555 397.465 174.793 384.19 174.793C370.915 174.793 360.154 185.555 360.154 198.83C360.154 212.105 370.915 222.866 384.19 222.866Z" fill="#0A1321"/>
<path d="M439.703 182.805C439.176 182.805 438.655 182.908 438.168 183.109C437.681 183.309 437.239 183.604 436.866 183.977C436.494 184.349 436.198 184.791 435.996 185.277C435.794 185.763 435.691 186.285 435.691 186.811C435.691 187.338 435.794 187.86 435.996 188.346C436.198 188.832 436.494 189.274 436.866 189.646C437.239 190.019 437.681 190.313 438.168 190.514C438.655 190.715 439.176 190.818 439.703 190.818H628.561C629.623 190.818 630.642 190.395 631.393 189.644C632.145 188.893 632.567 187.874 632.567 186.811C632.567 185.749 632.145 184.73 631.393 183.979C630.642 183.227 629.623 182.805 628.561 182.805H439.703Z" fill="#0A1321"/>
<path d="M439.703 206.842C438.641 206.842 437.622 207.264 436.87 208.015C436.119 208.767 435.697 209.786 435.697 210.848C435.697 211.91 436.119 212.929 436.87 213.681C437.622 214.432 438.641 214.854 439.703 214.854H520.969C522.032 214.854 523.05 214.432 523.802 213.681C524.553 212.929 524.975 211.91 524.975 210.848C524.975 209.786 524.553 208.767 523.802 208.015C523.05 207.264 522.032 206.842 520.969 206.842H439.703Z" fill="#0A1321"/>
<path d="M263.522 208.462L204.619 239.778L203.873 213.682C223.099 210.472 241.39 204.884 258.303 195.787L264.463 180.567C265.134 178.909 266.225 177.453 267.629 176.344C269.033 175.234 270.701 174.509 272.47 174.239C274.238 173.969 276.047 174.163 277.717 174.803C279.388 175.443 280.864 176.507 282 177.889C283.661 179.912 284.492 182.491 284.323 185.103C284.154 187.715 282.999 190.166 281.091 191.958L263.522 208.462Z" fill="#FFB8B8"/>
<path d="M119.598 389.267C119.168 387.691 119.077 386.042 119.33 384.428C119.584 382.815 120.176 381.273 121.067 379.904L134.007 360.046C137.067 355.349 141.763 351.957 147.184 350.527C152.604 349.097 158.363 349.731 163.342 352.307C157.904 361.563 158.662 369.684 165.22 376.741C155.039 381.711 145.63 388.125 137.284 395.786C135.76 396.824 134.01 397.484 132.18 397.709C130.35 397.935 128.492 397.72 126.762 397.082C125.032 396.444 123.479 395.403 122.233 394.043C120.987 392.684 120.083 391.046 119.598 389.267Z" fill="#2F2E41"/>
<path d="M266.205 363.303C264.247 366.566 261.483 369.271 258.178 371.159C254.874 373.047 251.139 374.053 247.334 374.082L161.374 374.733L157.646 353.11L195.672 341.926L163.61 317.321L198.654 276.313L262.304 335.637C266.024 339.104 268.441 343.744 269.151 348.78C269.861 353.815 268.821 358.942 266.205 363.303Z" fill="#2F2E41"/>
<path d="M147.953 511.179H127.821C109.746 387.282 91.3475 263.038 145.716 216.664L209.838 227.103L201.637 281.532L165.847 322.54L147.953 511.179Z" fill="#2F2E41"/>
<path d="M165.649 539.246C164.073 539.676 162.424 539.767 160.81 539.514C159.196 539.261 157.655 538.669 156.286 537.777L134.427 534.839C129.73 531.779 126.338 527.083 124.907 521.663C123.477 516.242 124.111 510.484 126.686 505.505C135.943 510.942 144.063 510.184 151.12 503.625C156.106 513.693 164.321 513.078 172.166 521.56C173.205 523.084 173.865 524.833 174.091 526.664C174.316 528.494 174.101 530.352 173.464 532.082C172.826 533.812 171.784 535.365 170.425 536.611C169.066 537.857 167.428 538.761 165.649 539.246Z" fill="#2F2E41"/>
<path d="M195.672 133.902L158.391 124.954C164.583 112.28 165.093 98.1781 162.119 83.2003L187.47 82.4547C188.264 101.08 190.667 118.481 195.672 133.902Z" fill="#FFB8B8"/>
<path d="M205.918 249.552C178.779 268.046 159.603 250.185 144.97 222.629C147.004 205.767 143.711 185.588 137.614 163.663C134.902 153.992 135.914 143.656 140.451 134.695C144.988 125.734 152.719 118.8 162.119 115.261L194.18 128.682C221.404 150.873 226.762 174.909 216.549 200.261L205.918 249.552Z" fill="#764AF1"/>
<path d="M127.821 152.542L97.9969 168.2L150.935 199.515L158.301 217.685C158.793 218.897 159.032 220.198 159.005 221.506C158.978 222.814 158.684 224.103 158.143 225.294C157.601 226.486 156.822 227.554 155.854 228.434C154.886 229.315 153.749 229.989 152.512 230.416C151.106 230.9 149.606 231.053 148.131 230.862C146.656 230.671 145.245 230.14 144.009 229.313C142.773 228.485 141.745 227.383 141.006 226.092C140.268 224.801 139.838 223.356 139.75 221.871L139.005 209.208L71.7216 187.004C69.4547 186.256 67.3877 185.002 65.6772 183.337C63.9667 181.672 62.6576 179.639 61.849 177.393C60.6703 174.119 60.6103 170.547 61.6784 167.235C62.7464 163.923 64.8822 161.059 67.7516 159.09L121.856 121.972L127.821 152.542Z" fill="#FFB8B8"/>
<path d="M157.646 155.524C145.207 150.073 133.896 155.995 119.62 160.744L117.383 121.226C131.559 113.671 145.075 111.633 157.646 117.498L157.646 155.524Z" fill="#764AF1"/>
<path d="M172.525 102.029C185.671 102.029 196.327 91.3723 196.327 78.2268C196.327 65.0812 185.671 54.4247 172.525 54.4247C159.379 54.4247 148.723 65.0812 148.723 78.2268C148.723 91.3723 159.379 102.029 172.525 102.029Z" fill="#FFB8B8"/>
<path d="M201 75.2236C177.434 77.5317 159.477 73.6775 148 62.7035V53.8658H199L201 75.2236Z" fill="#2F2E41"/>
</g>
<defs>
<clipPath id="clip0_26_1224">
<rect width="793" height="551.732" fill="white" transform="translate(0 0.134277)"/>
</clipPath>
</defs>
</svg>
