<svg width="750" height="472" viewBox="0 0 750 472" fill="none" xmlns="http://www.w3.org/2000/svg">
<g clip-path="url(#clip0_34_19080)">
<path d="M750 193.944H748.733V159.275C748.733 156.64 748.214 154.03 747.205 151.596C746.195 149.161 744.716 146.949 742.851 145.086C740.986 143.223 738.772 141.745 736.336 140.736C733.899 139.728 731.288 139.209 728.65 139.209H655.135C652.498 139.209 649.886 139.728 647.45 140.736C645.013 141.745 642.799 143.223 640.934 145.086C639.069 146.949 637.59 149.161 636.581 151.596C635.571 154.03 635.052 156.64 635.052 159.275V349.475C635.052 352.11 635.571 354.719 636.581 357.154C637.59 359.588 639.069 361.8 640.934 363.664C642.799 365.527 645.013 367.005 647.45 368.013C649.886 369.022 652.498 369.541 655.135 369.541H728.65C731.288 369.541 733.899 369.022 736.336 368.013C738.772 367.005 740.986 365.527 742.851 363.664C744.716 361.8 746.195 359.588 747.205 357.154C748.214 354.719 748.733 352.11 748.733 349.475V218.623H750V193.944Z" fill="#3F3D56"/>
<path d="M744.46 160.454V350.377C744.459 354.352 742.879 358.164 740.066 360.974C737.253 363.785 733.438 365.364 729.46 365.364H655.591C653.622 365.364 651.672 364.976 649.852 364.223C648.033 363.47 646.38 362.365 644.987 360.974C643.595 359.582 642.491 357.93 641.738 356.112C640.985 354.294 640.597 352.345 640.598 350.377V160.454C640.598 156.481 642.178 152.67 644.989 149.861C647.801 147.052 651.615 145.473 655.591 145.473H664.553C664.113 146.554 663.946 147.727 664.066 148.887C664.186 150.048 664.589 151.161 665.241 152.13C665.892 153.098 666.772 153.891 667.802 154.441C668.832 154.99 669.982 155.278 671.15 155.279H713.267C714.436 155.281 715.588 154.995 716.62 154.447C717.652 153.899 718.533 153.105 719.186 152.136C719.838 151.166 720.241 150.051 720.359 148.889C720.477 147.727 720.307 146.554 719.864 145.473H729.46C733.437 145.473 737.251 147.051 740.064 149.86C742.877 152.67 744.458 156.48 744.46 160.454Z" fill="#EDEEF1"/>
<path d="M730.475 242.709H644.605V265.861H730.475V242.709Z" fill="#4B55F2"/>
<path d="M733.883 261.775H650.739C650.197 261.775 649.677 261.559 649.294 261.176C648.911 260.793 648.695 260.274 648.695 259.733V239.305C648.695 238.763 648.911 238.244 649.294 237.861C649.677 237.478 650.197 237.263 650.739 237.262H733.883C734.425 237.263 734.945 237.478 735.328 237.861C735.711 238.244 735.927 238.763 735.928 239.305V259.733C735.927 260.274 735.711 260.793 735.328 261.176C734.945 261.559 734.425 261.775 733.883 261.775ZM650.739 238.624C650.558 238.624 650.385 238.696 650.257 238.824C650.13 238.951 650.058 239.124 650.058 239.305V259.733C650.058 259.913 650.13 260.086 650.257 260.214C650.385 260.342 650.558 260.413 650.739 260.414H733.883C734.064 260.413 734.237 260.342 734.365 260.214C734.493 260.086 734.564 259.913 734.565 259.733V239.305C734.564 239.124 734.493 238.951 734.365 238.824C734.237 238.696 734.064 238.624 733.883 238.624H650.739Z" fill="#3F3D56"/>
<path d="M665.051 255.647H654.146V257.009H665.051V255.647Z" fill="#3F3D56"/>
<path d="M680.044 255.647H669.14V257.009H680.044V255.647Z" fill="#3F3D56"/>
<path d="M695.037 255.647H684.133V257.009H695.037V255.647Z" fill="#3F3D56"/>
<path d="M710.03 255.647H699.126V257.009H710.03V255.647Z" fill="#3F3D56"/>
<path d="M725.023 255.647H714.119V257.009H725.023V255.647Z" fill="#3F3D56"/>
<path opacity="0.1" d="M744.46 331.066V350.377C744.459 354.352 742.879 358.164 740.066 360.974C737.253 363.785 733.438 365.364 729.46 365.364H655.591C653.622 365.364 651.672 364.976 649.852 364.223C648.033 363.47 646.38 362.366 644.987 360.974C643.595 359.582 642.491 357.93 641.738 356.112C640.985 354.294 640.597 352.345 640.598 350.377V261.544L744.46 331.066Z" fill="black"/>
<path d="M390.403 313.526H68.0493V471.5H390.403V313.526Z" fill="#EDEEF1"/>
<path opacity="0.1" d="M308.452 471.5H69.4127C69.0515 471.499 68.7055 471.355 68.4501 471.1C68.1947 470.845 68.0507 470.499 68.0497 470.138V314.887C68.0507 314.527 68.1947 314.181 68.4501 313.926C68.7055 313.67 69.0515 313.527 69.4127 313.526H72.4386L308.452 471.5Z" fill="black"/>
<path d="M716.845 334.634H217.3V335.996H716.845V334.634Z" fill="#3F3D56"/>
<path d="M375.234 3.44007H232.465V0.5H167.728V3.44007H24.3703C23.102 3.44006 21.8463 3.68964 20.6746 4.17455C19.5029 4.65946 18.4383 5.37019 17.5416 6.26618C16.6448 7.16217 15.9334 8.22586 15.4481 9.39653C14.9628 10.5672 14.713 11.8219 14.713 13.089V208.416C14.713 210.975 15.7305 213.429 17.5415 215.239C19.3526 217.049 21.809 218.065 24.3703 218.065H375.234C377.795 218.065 380.251 217.049 382.062 215.239C383.873 213.429 384.891 210.975 384.891 208.416V13.089C384.891 11.8219 384.641 10.5672 384.156 9.39653C383.67 8.22586 382.959 7.16217 382.062 6.26618C381.166 5.37019 380.101 4.65946 378.929 4.17455C377.758 3.68964 376.502 3.44006 375.234 3.44007Z" fill="#3F3D56"/>
<path d="M371.941 20.4897H27.6633V214.54H371.941V20.4897Z" fill="#EDEEF1"/>
<path d="M199.508 15.2003C201.458 15.2003 203.039 13.6208 203.039 11.6723C203.039 9.72374 201.458 8.14417 199.508 8.14417C197.557 8.14417 195.976 9.72374 195.976 11.6723C195.976 13.6208 197.557 15.2003 199.508 15.2003Z" fill="#6C63FF"/>
<path d="M130.067 92.9061H121.889C121.347 92.9055 120.827 92.6901 120.444 92.3071C120.06 91.9241 119.845 91.4049 119.844 90.8633V82.6922C119.845 82.1506 120.06 81.6313 120.444 81.2484C120.827 80.8654 121.347 80.65 121.889 80.6494H130.067C130.609 80.65 131.129 80.8654 131.512 81.2484C131.895 81.6313 132.111 82.1506 132.111 82.6922V90.8633C132.111 91.4049 131.895 91.9241 131.512 92.3071C131.129 92.6901 130.609 92.9055 130.067 92.9061ZM121.889 82.0113C121.708 82.0115 121.535 82.0833 121.407 82.211C121.279 82.3386 121.207 82.5117 121.207 82.6922V90.8633C121.207 91.0438 121.279 91.2169 121.407 91.3445C121.535 91.4722 121.708 91.544 121.889 91.5442H130.067C130.248 91.544 130.421 91.4722 130.548 91.3445C130.676 91.2169 130.748 91.0438 130.748 90.8633V82.6922C130.748 82.5117 130.676 82.3386 130.548 82.211C130.421 82.0833 130.248 82.0115 130.067 82.0113H121.889Z" fill="#3F3D56"/>
<path d="M275.909 91.5442H120.525V92.906H275.909V91.5442Z" fill="#3F3D56"/>
<path d="M271.82 128.995H235.7V139.89H271.82V128.995Z" fill="#4B55F2"/>
<path d="M274.547 137.166H241.153C240.611 137.166 240.091 136.95 239.708 136.567C239.324 136.184 239.109 135.665 239.108 135.123V126.952C239.109 126.411 239.324 125.891 239.708 125.509C240.091 125.126 240.611 124.91 241.153 124.91H274.547C275.089 124.91 275.608 125.126 275.992 125.509C276.375 125.891 276.591 126.411 276.591 126.952V135.123C276.591 135.665 276.375 136.184 275.992 136.567C275.608 136.95 275.089 137.166 274.547 137.166ZM241.153 126.271C240.972 126.272 240.799 126.343 240.671 126.471C240.543 126.599 240.471 126.772 240.471 126.952V135.123C240.471 135.304 240.543 135.477 240.671 135.605C240.799 135.732 240.972 135.804 241.153 135.804H274.547C274.727 135.804 274.9 135.732 275.028 135.605C275.156 135.477 275.228 135.304 275.228 135.123V126.952C275.228 126.772 275.156 126.599 275.028 126.471C274.9 126.343 274.727 126.272 274.547 126.271H241.153Z" fill="#3F3D56"/>
<path d="M547.831 141.252H479.68V188.916H547.831V141.252Z" fill="#4B55F2"/>
<path d="M554.646 185.171H489.222C488.499 185.171 487.806 184.883 487.295 184.373C486.784 183.862 486.496 183.17 486.496 182.448V137.507C486.496 136.785 486.784 136.092 487.295 135.582C487.806 135.071 488.499 134.784 489.222 134.783H554.646C555.369 134.784 556.062 135.071 556.573 135.582C557.084 136.092 557.372 136.785 557.372 137.507V182.448C557.372 183.17 557.084 183.862 556.573 184.373C556.062 184.883 555.369 185.171 554.646 185.171ZM489.222 137.507V182.448H554.648L554.646 137.507H489.222Z" fill="#3F3D56"/>
<path d="M547.15 135.804H544.424C544.424 129.845 542.054 124.129 537.837 119.915C533.619 115.701 527.899 113.334 521.934 113.334C515.969 113.334 510.249 115.701 506.031 119.915C501.814 124.129 499.444 129.845 499.444 135.804H496.718C496.718 129.122 499.375 122.714 504.104 117.989C508.833 113.264 515.246 110.61 521.934 110.61C528.622 110.61 535.035 113.264 539.764 117.989C544.493 122.714 547.15 129.122 547.15 135.804Z" fill="#3F3D56"/>
<path d="M528.749 154.53C528.75 153.344 528.442 152.178 527.854 151.148C527.266 150.118 526.419 149.26 525.397 148.657C524.375 148.055 523.213 147.729 522.026 147.713C520.84 147.697 519.669 147.991 518.631 148.565C517.593 149.14 516.723 149.976 516.108 150.989C515.492 152.003 515.152 153.16 515.121 154.345C515.09 155.53 515.37 156.703 515.932 157.747C516.494 158.792 517.319 159.671 518.326 160.299V167.607C518.326 168.081 518.419 168.55 518.601 168.987C518.782 169.424 519.048 169.822 519.383 170.157C519.718 170.491 520.116 170.757 520.553 170.938C520.991 171.119 521.46 171.212 521.934 171.212C522.891 171.212 523.809 170.833 524.485 170.157C525.162 169.48 525.542 168.564 525.542 167.607V160.299C526.523 159.689 527.332 158.839 527.893 157.829C528.454 156.82 528.749 155.684 528.749 154.53Z" fill="#3F3D56"/>
<path d="M204.692 383.661H193.788V385.023H204.692V383.661Z" fill="#3F3D56"/>
<path d="M219.685 383.661H208.781V385.023H219.685V383.661Z" fill="#3F3D56"/>
<path d="M234.678 383.661H223.774V385.023H234.678V383.661Z" fill="#3F3D56"/>
<path d="M249.671 383.661H238.767V385.023H249.671V383.661Z" fill="#3F3D56"/>
<path d="M264.664 383.661H253.76V385.023H264.664V383.661Z" fill="#3F3D56"/>
<path d="M404.714 459.924H85.0874C84.3646 459.924 83.6717 459.636 83.1606 459.126C82.6496 458.615 82.3621 457.923 82.3613 457.201V301.95C82.3621 301.228 82.6496 300.535 83.1606 300.025C83.6717 299.514 84.3646 299.227 85.0874 299.226H404.714C405.437 299.227 406.13 299.514 406.641 300.025C407.152 300.535 407.44 301.228 407.44 301.95V457.201C407.44 457.923 407.152 458.615 406.641 459.126C406.13 459.636 405.437 459.924 404.714 459.924ZM85.0874 301.95V457.201H404.716L404.714 301.95H85.0874Z" fill="#3F3D56"/>
<path d="M99.3986 325.101C101.657 325.101 103.488 323.272 103.488 321.016C103.488 318.759 101.657 316.93 99.3986 316.93C97.1403 316.93 95.3096 318.759 95.3096 321.016C95.3096 323.272 97.1403 325.101 99.3986 325.101Z" fill="#3F3D56"/>
<path d="M113.71 325.101C115.969 325.101 117.799 323.272 117.799 321.016C117.799 318.759 115.969 316.93 113.71 316.93C111.452 316.93 109.621 318.759 109.621 321.016C109.621 323.272 111.452 325.101 113.71 325.101Z" fill="#3F3D56"/>
<path d="M128.022 325.101C130.28 325.101 132.111 323.272 132.111 321.016C132.111 318.759 130.28 316.93 128.022 316.93C125.764 316.93 123.933 318.759 123.933 321.016C123.933 323.272 125.764 325.101 128.022 325.101Z" fill="#3F3D56"/>
<path d="M275.228 393.194H183.224C182.682 393.193 182.163 392.978 181.779 392.595C181.396 392.212 181.181 391.692 181.18 391.151V367.999C181.181 367.458 181.396 366.939 181.779 366.556C182.163 366.173 182.682 365.957 183.224 365.957H275.228C275.77 365.957 276.29 366.173 276.673 366.556C277.056 366.939 277.272 367.458 277.273 367.999V391.151C277.272 391.692 277.056 392.212 276.673 392.595C276.29 392.978 275.77 393.193 275.228 393.194ZM183.224 367.319C183.044 367.319 182.871 367.391 182.743 367.518C182.615 367.646 182.543 367.819 182.543 367.999V391.151C182.543 391.331 182.615 391.505 182.743 391.632C182.871 391.76 183.044 391.832 183.224 391.832H275.228C275.409 391.832 275.582 391.76 275.71 391.632C275.837 391.505 275.909 391.331 275.91 391.151V367.999C275.909 367.819 275.837 367.646 275.71 367.518C275.582 367.391 275.409 367.319 275.228 367.319H183.224Z" fill="#3F3D56"/>
<path d="M298.399 393.875C305.174 393.875 310.666 388.387 310.666 381.618C310.666 374.849 305.174 369.361 298.399 369.361C291.624 369.361 286.132 374.849 286.132 381.618C286.132 388.387 291.624 393.875 298.399 393.875Z" fill="#4B55F2"/>
<path d="M302.488 392.513C299.927 392.513 297.424 391.754 295.294 390.332C293.165 388.911 291.505 386.89 290.525 384.526C289.545 382.162 289.289 379.561 289.788 377.051C290.288 374.542 291.521 372.236 293.332 370.427C295.143 368.618 297.45 367.385 299.962 366.886C302.474 366.387 305.077 366.643 307.443 367.622C309.809 368.602 311.832 370.26 313.255 372.388C314.677 374.515 315.437 377.016 315.437 379.575C315.433 383.005 314.067 386.294 311.64 388.719C309.212 391.145 305.921 392.509 302.488 392.513ZM302.488 368C300.197 368 297.957 368.678 296.051 369.95C294.146 371.222 292.661 373.03 291.784 375.145C290.907 377.261 290.678 379.588 291.125 381.834C291.572 384.079 292.676 386.142 294.296 387.761C295.916 389.379 297.98 390.482 300.228 390.929C302.475 391.375 304.805 391.146 306.922 390.27C309.039 389.394 310.848 387.91 312.121 386.006C313.394 384.103 314.074 381.865 314.074 379.575C314.07 376.506 312.849 373.564 310.677 371.394C308.505 369.224 305.56 368.003 302.488 368Z" fill="#3F3D56"/>
<path d="M302.67 384.407L296.072 377.814L298 375.889L302.306 380.191L314.322 363.13L316.552 364.698L302.67 384.407Z" fill="#3F3D56"/>
<path opacity="0.1" d="M295.611 214.54H27.663V35.191L295.611 214.54Z" fill="black"/>
<path d="M394.557 211.009H360.958V208.59C360.958 208.527 360.945 208.465 360.921 208.407C360.897 208.348 360.862 208.296 360.817 208.251C360.773 208.207 360.72 208.171 360.661 208.147C360.603 208.123 360.541 208.111 360.478 208.111H348.958C348.895 208.111 348.832 208.123 348.774 208.147C348.716 208.171 348.663 208.207 348.618 208.251C348.574 208.296 348.538 208.348 348.514 208.407C348.49 208.465 348.478 208.527 348.478 208.59V211.009H341.278V208.59C341.278 208.527 341.265 208.465 341.241 208.407C341.217 208.348 341.182 208.296 341.137 208.251C341.093 208.207 341.04 208.171 340.982 208.147C340.923 208.123 340.861 208.111 340.798 208.111H329.278C329.215 208.111 329.152 208.123 329.094 208.147C329.036 208.171 328.983 208.207 328.939 208.251C328.894 208.296 328.859 208.348 328.834 208.407C328.81 208.465 328.798 208.527 328.798 208.59V211.009H321.598V208.59C321.598 208.527 321.586 208.465 321.561 208.407C321.537 208.348 321.502 208.296 321.457 208.251C321.413 208.207 321.36 208.171 321.302 208.147C321.243 208.123 321.181 208.111 321.118 208.111H309.598C309.535 208.111 309.473 208.123 309.414 208.147C309.356 208.171 309.303 208.207 309.259 208.251C309.214 208.296 309.179 208.348 309.155 208.407C309.13 208.465 309.118 208.527 309.118 208.59V211.009H301.918V208.59C301.918 208.527 301.906 208.465 301.882 208.407C301.857 208.348 301.822 208.296 301.778 208.251C301.733 208.207 301.68 208.171 301.622 208.147C301.564 208.123 301.501 208.111 301.438 208.111H289.918C289.855 208.111 289.793 208.123 289.734 208.147C289.676 208.171 289.623 208.207 289.579 208.251C289.534 208.296 289.499 208.348 289.475 208.407C289.451 208.465 289.438 208.527 289.438 208.59V211.009H282.238V208.59C282.238 208.527 282.226 208.465 282.202 208.407C282.178 208.348 282.142 208.296 282.098 208.251C282.053 208.207 282 208.171 281.942 208.147C281.884 208.123 281.821 208.111 281.758 208.111H270.238C270.175 208.111 270.113 208.123 270.055 208.147C269.996 208.171 269.943 208.207 269.899 208.251C269.854 208.296 269.819 208.348 269.795 208.407C269.771 208.465 269.758 208.527 269.758 208.59V211.009H262.558V208.59C262.558 208.527 262.546 208.465 262.522 208.407C262.498 208.348 262.462 208.296 262.418 208.251C262.373 208.207 262.32 208.171 262.262 208.147C262.204 208.123 262.141 208.111 262.078 208.111H250.558C250.495 208.111 250.433 208.123 250.375 208.147C250.316 208.171 250.264 208.207 250.219 208.251C250.174 208.296 250.139 208.348 250.115 208.407C250.091 208.465 250.078 208.527 250.078 208.59V211.009H242.878V208.59C242.878 208.527 242.866 208.465 242.842 208.407C242.818 208.348 242.782 208.296 242.738 208.251C242.693 208.207 242.64 208.171 242.582 208.147C242.524 208.123 242.462 208.111 242.398 208.111H152.159C152.096 208.111 152.034 208.123 151.975 208.147C151.917 208.171 151.864 208.207 151.82 208.251C151.775 208.296 151.74 208.348 151.716 208.407C151.691 208.465 151.679 208.527 151.679 208.59V211.009H144.479V208.59C144.479 208.527 144.467 208.465 144.443 208.407C144.418 208.348 144.383 208.296 144.338 208.251C144.294 208.207 144.241 208.171 144.183 208.147C144.125 208.123 144.062 208.111 143.999 208.111H132.479C132.416 208.111 132.354 208.123 132.295 208.147C132.237 208.171 132.184 208.207 132.14 208.251C132.095 208.296 132.06 208.348 132.036 208.407C132.012 208.465 131.999 208.527 131.999 208.59V211.009H124.799V208.59C124.799 208.527 124.787 208.465 124.763 208.407C124.739 208.348 124.703 208.296 124.659 208.251C124.614 208.207 124.561 208.171 124.503 208.147C124.445 208.123 124.382 208.111 124.319 208.111H112.799C112.736 208.111 112.674 208.123 112.616 208.147C112.557 208.171 112.504 208.207 112.46 208.251C112.415 208.296 112.38 208.348 112.356 208.407C112.332 208.465 112.319 208.527 112.319 208.59V211.009H105.119V208.59C105.119 208.527 105.107 208.465 105.083 208.407C105.059 208.348 105.023 208.296 104.979 208.251C104.934 208.207 104.881 208.171 104.823 208.147C104.765 208.123 104.702 208.111 104.639 208.111H93.1194C93.0564 208.111 92.994 208.123 92.9357 208.147C92.8775 208.171 92.8246 208.207 92.78 208.251C92.7355 208.296 92.7001 208.348 92.676 208.407C92.6518 208.465 92.6394 208.527 92.6394 208.59V211.009H85.4395V208.59C85.4395 208.527 85.427 208.465 85.4029 208.407C85.3788 208.348 85.3434 208.296 85.2989 208.251C85.2543 208.207 85.2014 208.171 85.1432 208.147C85.0849 208.123 85.0225 208.111 84.9595 208.111H73.4395C73.3765 208.111 73.3141 208.123 73.2558 208.147C73.1976 208.171 73.1447 208.207 73.1001 208.251C73.0555 208.296 73.0202 208.348 72.9961 208.407C72.9719 208.465 72.9595 208.527 72.9595 208.59V211.009H65.7596V208.59C65.7596 208.527 65.7472 208.465 65.7231 208.407C65.699 208.348 65.6636 208.296 65.619 208.251C65.5744 208.207 65.5215 208.171 65.4633 208.147C65.4051 208.123 65.3426 208.111 65.2796 208.111H53.7597C53.6966 208.111 53.6342 208.123 53.576 208.147C53.5177 208.171 53.4648 208.207 53.4202 208.251C53.3757 208.296 53.3403 208.348 53.3162 208.407C53.2921 208.465 53.2797 208.527 53.2797 208.59V211.009H46.0797V208.59C46.0797 208.527 46.0673 208.465 46.0432 208.407C46.019 208.348 45.9837 208.296 45.9391 208.251C45.8946 208.207 45.8416 208.171 45.7834 208.147C45.7252 208.123 45.6627 208.111 45.5997 208.111H34.0798C34.0168 208.111 33.9543 208.123 33.8961 208.147C33.8379 208.171 33.7849 208.207 33.7404 208.251C33.6958 208.296 33.6604 208.348 33.6363 208.407C33.6122 208.465 33.5998 208.527 33.5998 208.59V211.009H11.5199C10.0071 211.009 8.5091 211.307 7.11144 211.885C5.71378 212.464 4.44383 213.311 3.3741 214.38C2.30438 215.449 1.45583 216.718 0.8769 218.114C0.29797 219.511 -8.94967e-07 221.007 0 222.519V227.724C7.22988e-06 230.776 1.21371 233.704 3.37412 235.862C5.53452 238.021 8.46466 239.234 11.5199 239.234H394.557C396.07 239.234 397.568 238.936 398.966 238.357C400.364 237.779 401.634 236.931 402.703 235.862C403.773 234.794 404.622 233.525 405.201 232.128C405.779 230.732 406.077 229.235 406.077 227.724V222.519C406.077 221.007 405.779 219.511 405.201 218.114C404.622 216.718 403.773 215.449 402.703 214.38C401.634 213.311 400.364 212.464 398.966 211.885C397.568 211.307 396.07 211.009 394.557 211.009Z" fill="#3F3D56"/>
<path d="M289.54 148.742H109.622C109.08 148.741 108.56 148.526 108.177 148.143C107.793 147.76 107.578 147.241 107.577 146.699V71.7974C107.578 71.2558 107.793 70.7366 108.177 70.3536C108.56 69.9706 109.08 69.7552 109.622 69.7546H289.54C290.082 69.7552 290.602 69.9706 290.985 70.3536C291.368 70.7366 291.584 71.2558 291.584 71.7974V146.699C291.584 147.241 291.368 147.76 290.985 148.143C290.602 148.526 290.082 148.741 289.54 148.742ZM109.622 71.1165C109.441 71.1167 109.268 71.1885 109.14 71.3162C109.012 71.4438 108.94 71.6169 108.94 71.7974V146.699C108.94 146.88 109.012 147.053 109.14 147.18C109.268 147.308 109.441 147.38 109.622 147.38H289.54C289.72 147.38 289.894 147.308 290.021 147.18C290.149 147.053 290.221 146.88 290.221 146.699V71.7974C290.221 71.6169 290.149 71.4438 290.021 71.3162C289.894 71.1885 289.72 71.1167 289.54 71.1165H109.622Z" fill="#3F3D56"/>
<path d="M130.067 113.334H121.889C121.347 113.333 120.827 113.118 120.444 112.735C120.06 112.352 119.845 111.833 119.844 111.291V103.12C119.845 102.578 120.06 102.059 120.444 101.676C120.827 101.293 121.347 101.078 121.889 101.077H130.067C130.609 101.078 131.129 101.293 131.512 101.676C131.895 102.059 132.111 102.578 132.111 103.12V111.291C132.111 111.833 131.895 112.352 131.512 112.735C131.129 113.118 130.609 113.333 130.067 113.334ZM121.889 102.439C121.708 102.439 121.535 102.511 121.407 102.639C121.279 102.766 121.207 102.939 121.207 103.12V111.291C121.207 111.472 121.279 111.645 121.407 111.772C121.535 111.9 121.708 111.972 121.889 111.972H130.067C130.248 111.972 130.421 111.9 130.548 111.772C130.676 111.645 130.748 111.472 130.748 111.291V103.12C130.748 102.939 130.676 102.766 130.548 102.639C130.421 102.511 130.248 102.439 130.067 102.439H121.889Z" fill="#3F3D56"/>
<path d="M275.909 111.972H120.525V113.334H275.909V111.972Z" fill="#3F3D56"/>
<path d="M680.043 184.15H180.498V185.512H680.043V184.15Z" fill="#3F3D56"/>
<path d="M180.498 193.683C185.768 193.683 190.039 189.415 190.039 184.15C190.039 178.885 185.768 174.617 180.498 174.617C175.229 174.617 170.957 178.885 170.957 184.15C170.957 189.415 175.229 193.683 180.498 193.683Z" fill="#3F3D56"/>
<path d="M680.044 193.002C684.184 193.002 687.54 189.648 687.54 185.512C687.54 181.375 684.184 178.022 680.044 178.022C675.904 178.022 672.547 181.375 672.547 185.512C672.547 189.648 675.904 193.002 680.044 193.002Z" fill="#3F3D56"/>
<path d="M716.845 343.486C720.985 343.486 724.342 340.133 724.342 335.996C724.342 331.859 720.985 328.506 716.845 328.506C712.705 328.506 709.349 331.859 709.349 335.996C709.349 340.133 712.705 343.486 716.845 343.486Z" fill="#3F3D56"/>
<path d="M219.344 343.486C223.484 343.486 226.841 340.133 226.841 335.996C226.841 331.859 223.484 328.506 219.344 328.506C215.204 328.506 211.848 331.859 211.848 335.996C211.848 340.133 215.204 343.486 219.344 343.486Z" fill="#3F3D56"/>
</g>
<defs>
<clipPath id="clip0_34_19080">
<rect width="750" height="471" fill="white" transform="translate(0 0.5)"/>
</clipPath>
</defs>
</svg>
